<?xml version="1.0" standalone="no"?>
<!DOCTYPE svg PUBLIC "-//W3C//DTD SVG 20010904//EN"
 "http://www.w3.org/TR/2001/REC-SVG-20010904/DTD/svg10.dtd">
<svg version="1.0" xmlns="http://www.w3.org/2000/svg"
 width="58.000000pt" height="25.000000pt" viewBox="0 0 58.000000 25.000000"
 preserveAspectRatio="xMidYMid meet">

<g transform="translate(0.000000,25.000000) scale(0.100000,-0.100000)"
fill="#000000" stroke="none">
<path d="M17 232 c-22 -24 -21 -45 1 -64 31 -28 259 -168 272 -168 13 0 200
114 258 157 17 13 32 32 32 42 0 20 -30 51 -49 51 -7 0 -64 -32 -126 -71 -98
-61 -117 -69 -135 -59 -11 6 -63 38 -115 70 -52 33 -101 60 -108 60 -8 0 -21
-8 -30 -18z"/>
</g>
</svg>
